{"title":"Peter Solan - 1963 - The Boxer","uid":11237574,"size":733396992,"categoryP":"video","categoryS":"movies","magnet":"?xt=urn:btih:9c3ed07664201bfbe8c87e9642f05e0bd91d047c&amp;dn=Peter+Solan+-+1963+-+The+Boxer&amp;tr=udp%3A%2F%2Ftracker.openbittorrent.com%3A80&amp;tr=udp%3A%2F%2Fopen.demonii.com%3A1337&amp;tr=udp%3A%2F%2Ftracker.coppersurfer.tk%3A6969&amp;tr=udp%3A%2F%2Fexodus.desync.com%3A6969","seeders":0,"leechers":1,"uploader":"rpessoa","files":1,"time":1413615168,"description":"In a Nazi concentration camp, an escapee awaiting execution is spared when the commandant, a former prize-fighter, discovers the prisoner has amateur boxing ability. Ordered to train, he gradually sharpens his skills.\n &lt;a href=&quot;\nhttp://www.imdb.com/title/tt0056885/&quot; rel=&quot;nofollow&quot; target=&quot;_NEW&quot;&gt;\nhttp://www.imdb.com/title/tt0056885/&lt;/a&gt;\n\nGeneral\nComplete name                            : Boxer a smrt.avi\nFormat                                   : AVI\nFormat/Info                              : Audio Video Interleave\nFile size                                : 699 MiB\nDuration                                 : 1h 42mn\nOverall bit rate                         : 957 Kbps\nWriting application                      : VirtualDubMod 1.5.10.2 (build 2540/release)\nWriting library                          : VirtualDubMod build 2540/release\n\nVideo\nID                                       : 0\nFormat                                   : MPEG-4 Visual\nFormat profile                           : Advanced Simple@L5\nFormat settings, BVOP                    : 2\nFormat settings, QPel                    : No\nFormat settings, GMC                     : No warppoints\nFormat settings, Matrix                  : Default (H.263)\nMuxing mode                              : Packed bitstream\nCodec ID                                 : XVID\nCodec ID/Hint                            : XviD\nDuration                                 : 1h 42mn\nBit rate                                 : 819 Kbps\nWidth                                    : 624 pixels\nHeight                                   : 384 pixels\nDisplay aspect ratio                     : 1.625\nFrame rate                               : 25.000 fps\nColor space                              : YUV\nChroma subsampling                       : 4:2:0\nBit depth                                : 8 bits\nScan type                                : Progressive\nCompression mode                         : Lossy\nBits/(Pixel*Frame)                       : 0.137\nStream size                              : 599 MiB (86%)\nWriting library                          : XviD 1.1.2 (UTC 2006-11-01)\n\nAudio\nID                                       : 1\nFormat                                   : MPEG Audio\nFormat version                           : Version 1\nFormat profile                           : Layer 3\nMode                                     : Joint stereo\nMode extension                           : MS Stereo\nCodec ID                                 : 55\nCodec ID/Hint                            : MP3\nDuration                                 : 1h 42mn\nBit rate mode                            : Constant\nBit rate                                 : 128 Kbps\nChannel(s)                               : 2 channels\nSampling rate                            : 48.0 KHz\nCompression mode                         : Lossy\nStream size                              : 93.6 MiB (13%)\nAlignment                                : Aligned on interleaves\nInterleave, duration                     : 40 ms (1.00 video frame)\nInterleave, preload duration             : 504 ms","torrent":{"xt":"urn:btih:9c3ed07664201bfbe8c87e9642f05e0bd91d047c","amp;dn":"Peter+Solan+-+1963+-+The+Boxer","amp;tr":["udp%3A%2F%2Ftracker.openbittorrent.com%3A80","udp%3A%2F%2Fopen.demonii.com%3A1337","udp%3A%2F%2Ftracker.coppersurfer.tk%3A6969","udp%3A%2F%2Fexodus.desync.com%3A6969"],"infoHash":"9c3ed07664201bfbe8c87e9642f05e0bd91d047c","infoHashBuffer":{"type":"Buffer","data":[156,62,208,118,100,32,27,251,232,200,126,150,66,240,94,11,217,29,4,124]},"announce":[],"urlList":[]}}